<!-- Generated by IcoMoon.io -->
<svg version="1.1" xmlns="http://www.w3.org/2000/svg" width="439" height="512" viewBox="0 0 439 512">
<title></title>
<g id="icomoon-ignore">
</g>
<path fill="#000" d="M365.783 174.286c-10.857 4.857-22.286 8-34.572 9.714 12.572-7.428 22-19.428 26.572-33.428-11.714 6.857-24.572 12-38.286 14.572-10.857-11.714-26.572-18.857-43.714-18.857-33.143 0-60 26.857-60 60 0 4.571 0.286 9.429 1.429 13.714-50-2.571-94.285-26.285-124-62.857-5.143 8.857-8.285 19.428-8.285 30.286 0 20.857 9.715 39.143 26 50-10-0.286-19.428-3.143-28.572-7.428v0.571c0 29.143 22 53.429 49.428 58.857-5.143 1.428-9.143 2.286-14.572 2.286-3.715 0-7.428-0.572-11.143-1.143 7.715 23.714 29.715 41.143 56 41.714-20.572 16-46.285 25.714-74.572 25.714-4.857 0-9.715-0.286-14.285-0.857 26.572 16.857 58 26.857 92 26.857 110.285 0 170.857-91.428 170.857-170.857 0-2.571 0-5.143-0.286-7.714 11.714-8.286 22-18.857 30-31.143zM438.925 118.857v274.286c0 45.428-36.857 82.286-82.286 82.286h-274.286c-45.428 0-82.285-36.857-82.285-82.286v-274.286c0-45.428 36.857-82.285 82.285-82.285h274.286c45.428 0 82.286 36.857 82.286 82.285z"></path>
</svg>
